<svg id="visual" viewBox="0 0 900 600" width="900" height="600" xmlns="http://www.w3.org/2000/svg" xmlns:xlink="http://www.w3.org/1999/xlink" version="1.1"><rect x="0" y="0" width="900" height="600" fill="#001220"></rect><defs><linearGradient id="grad1_0" x1="33.3%" y1="0%" x2="100%" y2="100%"><stop offset="20%" stop-color="#fbae3c" stop-opacity="1"></stop><stop offset="80%" stop-color="#fbae3c" stop-opacity="1"></stop></linearGradient></defs><defs><linearGradient id="grad1_1" x1="33.3%" y1="0%" x2="100%" y2="100%"><stop offset="20%" stop-color="#fbae3c" stop-opacity="1"></stop><stop offset="80%" stop-color="#96446e" stop-opacity="1"></stop></linearGradient></defs><defs><linearGradient id="grad1_2" x1="33.3%" y1="0%" x2="100%" y2="100%"><stop offset="20%" stop-color="#001220" stop-opacity="1"></stop><stop offset="80%" stop-color="#96446e" stop-opacity="1"></stop></linearGradient></defs><defs><linearGradient id="grad2_0" x1="0%" y1="0%" x2="66.7%" y2="100%"><stop offset="20%" stop-color="#fbae3c" stop-opacity="1"></stop><stop offset="80%" stop-color="#fbae3c" stop-opacity="1"></stop></linearGradient></defs><defs><linearGradient id="grad2_1" x1="0%" y1="0%" x2="66.7%" y2="100%"><stop offset="20%" stop-color="#96446e" stop-opacity="1"></stop><stop offset="80%" stop-color="#fbae3c" stop-opacity="1"></stop></linearGradient></defs><defs><linearGradient id="grad2_2" x1="0%" y1="0%" x2="66.7%" y2="100%"><stop offset="20%" stop-color="#96446e" stop-opacity="1"></stop><stop offset="80%" stop-color="#001220" stop-opacity="1"></stop></linearGradient></defs><g transform="translate(900, 0)"><path d="M0 486.7C-63.4 478.2 -126.8 469.7 -185.2 447.2C-243.6 424.6 -297.1 387.9 -342.9 342.9C-388.8 298 -427 244.8 -449.7 186.3C-472.4 127.7 -479.6 63.9 -486.7 0L0 0Z" fill="#3d3056"></path><path d="M0 324.5C-42.3 318.8 -84.5 313.2 -123.5 298.1C-162.4 283 -198.1 258.6 -228.6 228.6C-259.2 198.7 -284.7 163.2 -299.8 124.2C-314.9 85.2 -319.7 42.6 -324.5 0L0 0Z" fill="#e1685e"></path><path d="M0 162.2C-21.1 159.4 -42.3 156.6 -61.7 149.1C-81.2 141.5 -99 129.3 -114.3 114.3C-129.6 99.3 -142.3 81.6 -149.9 62.1C-157.5 42.6 -159.9 21.3 -162.2 0L0 0Z" fill="#fbae3c"></path></g><g transform="translate(0, 600)"><path d="M0 -486.7C64.4 -481 128.7 -475.3 186.3 -449.7C243.8 -424.1 294.5 -378.6 328.1 -328.1C361.7 -277.6 378.3 -222 401.9 -166.5C425.5 -110.9 456.1 -55.5 486.7 0L0 0Z" fill="#3d3056"></path><path d="M0 -324.5C42.9 -320.7 85.8 -316.9 124.2 -299.8C162.5 -282.7 196.3 -252.4 218.7 -218.7C241.1 -185 252.2 -148 267.9 -111C283.7 -74 304.1 -37 324.5 0L0 0Z" fill="#e1685e"></path><path d="M0 -162.2C21.5 -160.3 42.9 -158.4 62.1 -149.9C81.3 -141.4 98.2 -126.2 109.4 -109.4C120.6 -92.5 126.1 -74 134 -55.5C141.8 -37 152 -18.5 162.2 0L0 0Z" fill="#fbae3c"></path></g></svg>