<svg id="visual" viewBox="0 0 900 600" width="900" height="600" xmlns="http://www.w3.org/2000/svg" xmlns:xlink="http://www.w3.org/1999/xlink" version="1.1"><path d="M0 145L82 145L82 157L164 157L164 145L245 145L245 157L327 157L327 55L409 55L409 145L491 145L491 175L573 175L573 97L655 97L655 127L736 127L736 157L818 157L818 115L900 115L900 127L900 0L900 0L818 0L818 0L736 0L736 0L655 0L655 0L573 0L573 0L491 0L491 0L409 0L409 0L327 0L327 0L245 0L245 0L164 0L164 0L82 0L82 0L0 0Z" fill="#fa7268"></path><path d="M0 265L82 265L82 295L164 295L164 247L245 247L245 391L327 391L327 175L409 175L409 367L491 367L491 397L573 397L573 229L655 229L655 247L736 247L736 271L818 271L818 289L900 289L900 265L900 125L900 113L818 113L818 155L736 155L736 125L655 125L655 95L573 95L573 173L491 173L491 143L409 143L409 53L327 53L327 155L245 155L245 143L164 143L164 155L82 155L82 143L0 143Z" fill="#ea5e66"></path><path d="M0 337L82 337L82 337L164 337L164 313L245 313L245 439L327 439L327 289L409 289L409 427L491 427L491 445L573 445L573 325L655 325L655 367L736 367L736 379L818 379L818 385L900 385L900 385L900 263L900 287L818 287L818 269L736 269L736 245L655 245L655 227L573 227L573 395L491 395L491 365L409 365L409 173L327 173L327 389L245 389L245 245L164 245L164 293L82 293L82 263L0 263Z" fill="#d84a64"></path><path d="M0 523L82 523L82 535L164 535L164 529L245 529L245 511L327 511L327 535L409 535L409 511L491 511L491 529L573 529L573 517L655 517L655 505L736 505L736 541L818 541L818 541L900 541L900 505L900 383L900 383L818 383L818 377L736 377L736 365L655 365L655 323L573 323L573 443L491 443L491 425L409 425L409 287L327 287L327 437L245 437L245 311L164 311L164 335L82 335L82 335L0 335Z" fill="#c53762"></path><path d="M0 601L82 601L82 601L164 601L164 601L245 601L245 601L327 601L327 601L409 601L409 601L491 601L491 601L573 601L573 601L655 601L655 601L736 601L736 601L818 601L818 601L900 601L900 601L900 503L900 539L818 539L818 539L736 539L736 503L655 503L655 515L573 515L573 527L491 527L491 509L409 509L409 533L327 533L327 509L245 509L245 527L164 527L164 533L82 533L82 521L0 521Z" fill="#b0235f"></path></svg>